G04 #@! TF.FileFunction,Legend,Top*
%FSLAX46Y46*%
G04 Gerber Fmt 4.6, Leading zero omitted, Abs format (unit mm)*
G04 Created by KiCad (PCBNEW 4.0.6) date Tue May 26 19:12:12 2020*
%MOMM*%
%LPD*%
G01*
G04 APERTURE LIST*
%ADD10C,0.100000*%
%ADD11C,0.300000*%
%ADD12C,0.150000*%
%ADD13C,0.120000*%
G04 APERTURE END LIST*
D10*
D11*
X41678571Y-38185714D02*
X40178571Y-38185714D01*
X41250000Y-37685714D01*
X40178571Y-37185714D01*
X41678571Y-37185714D01*
X41607143Y-36542857D02*
X41678571Y-36328571D01*
X41678571Y-35971428D01*
X41607143Y-35828571D01*
X41535714Y-35757142D01*
X41392857Y-35685714D01*
X41250000Y-35685714D01*
X41107143Y-35757142D01*
X41035714Y-35828571D01*
X40964286Y-35971428D01*
X40892857Y-36257142D01*
X40821429Y-36400000D01*
X40750000Y-36471428D01*
X40607143Y-36542857D01*
X40464286Y-36542857D01*
X40321429Y-36471428D01*
X40250000Y-36400000D01*
X40178571Y-36257142D01*
X40178571Y-35900000D01*
X40250000Y-35685714D01*
X40178571Y-35185714D02*
X41678571Y-34185714D01*
X40178571Y-34185714D02*
X41678571Y-35185714D01*
X41678571Y-33614286D02*
X40678571Y-33614286D01*
X40821429Y-33614286D02*
X40750000Y-33542858D01*
X40678571Y-33400000D01*
X40678571Y-33185715D01*
X40750000Y-33042858D01*
X40892857Y-32971429D01*
X41678571Y-32971429D01*
X40892857Y-32971429D02*
X40750000Y-32900000D01*
X40678571Y-32757143D01*
X40678571Y-32542858D01*
X40750000Y-32400000D01*
X40892857Y-32328572D01*
X41678571Y-32328572D01*
X41678571Y-30971429D02*
X40892857Y-30971429D01*
X40750000Y-31042858D01*
X40678571Y-31185715D01*
X40678571Y-31471429D01*
X40750000Y-31614286D01*
X41607143Y-30971429D02*
X41678571Y-31114286D01*
X41678571Y-31471429D01*
X41607143Y-31614286D01*
X41464286Y-31685715D01*
X41321429Y-31685715D01*
X41178571Y-31614286D01*
X41107143Y-31471429D01*
X41107143Y-31114286D01*
X41035714Y-30971429D01*
X41678571Y-30257143D02*
X40178571Y-30257143D01*
X41107143Y-30114286D02*
X41678571Y-29685715D01*
X40678571Y-29685715D02*
X41250000Y-30257143D01*
X41607143Y-28471429D02*
X41678571Y-28614286D01*
X41678571Y-28900000D01*
X41607143Y-29042857D01*
X41464286Y-29114286D01*
X40892857Y-29114286D01*
X40750000Y-29042857D01*
X40678571Y-28900000D01*
X40678571Y-28614286D01*
X40750000Y-28471429D01*
X40892857Y-28400000D01*
X41035714Y-28400000D01*
X41178571Y-29114286D01*
X41678571Y-27757143D02*
X40678571Y-27757143D01*
X40964286Y-27757143D02*
X40821429Y-27685715D01*
X40750000Y-27614286D01*
X40678571Y-27471429D01*
X40678571Y-27328572D01*
X41607143Y-26900001D02*
X41678571Y-26757144D01*
X41678571Y-26471429D01*
X41607143Y-26328572D01*
X41464286Y-26257144D01*
X41392857Y-26257144D01*
X41250000Y-26328572D01*
X41178571Y-26471429D01*
X41178571Y-26685715D01*
X41107143Y-26828572D01*
X40964286Y-26900001D01*
X40892857Y-26900001D01*
X40750000Y-26828572D01*
X40678571Y-26685715D01*
X40678571Y-26471429D01*
X40750000Y-26328572D01*
X41535714Y-25614286D02*
X41607143Y-25542858D01*
X41678571Y-25614286D01*
X41607143Y-25685715D01*
X41535714Y-25614286D01*
X41678571Y-25614286D01*
X41107143Y-25614286D02*
X40250000Y-25685715D01*
X40178571Y-25614286D01*
X40250000Y-25542858D01*
X41107143Y-25614286D01*
X40178571Y-25614286D01*
D12*
X39430000Y-46430000D02*
X39440000Y-46430000D01*
X39430000Y-24470000D02*
X39430000Y-46430000D01*
X63210000Y-24470000D02*
X39430000Y-24470000D01*
X63210000Y-46430000D02*
X63210000Y-24470000D01*
X39440000Y-46430000D02*
X63210000Y-46430000D01*
D13*
X60090000Y-25060000D02*
X49810000Y-25060000D01*
X49810000Y-25060000D02*
X49810000Y-27840000D01*
X49810000Y-27840000D02*
X60090000Y-27840000D01*
X60090000Y-27840000D02*
X60090000Y-25060000D01*
X61360000Y-25060000D02*
X62750000Y-25060000D01*
X62750000Y-25060000D02*
X62750000Y-26450000D01*
D12*
X48406667Y-25222381D02*
X48406667Y-25936667D01*
X48359047Y-26079524D01*
X48263809Y-26174762D01*
X48120952Y-26222381D01*
X48025714Y-26222381D01*
X48835238Y-25317619D02*
X48882857Y-25270000D01*
X48978095Y-25222381D01*
X49216191Y-25222381D01*
X49311429Y-25270000D01*
X49359048Y-25317619D01*
X49406667Y-25412857D01*
X49406667Y-25508095D01*
X49359048Y-25650952D01*
X48787619Y-26222381D01*
X49406667Y-26222381D01*
M02*
