M48
;DRILL file {KiCad 4.0.6} date Tue May 26 18:58:32 2020
;FORMAT={-:-/ absolute / metric / decimal}
FMAT,2
METRIC,TZ
T1C0.800
T2C1.000
%
G90
G05
M71
T1
X43.6Y-40.9
X45.5Y-26.9
X46.1Y-38.6
X51.2Y-41.5
X53.74Y-32.39
X56.2Y-38.6
X56.24Y-30.4
X58.28Y-35.81
T2
X41.03Y-44.43
X43.Y-30.62
X43.Y-33.16
X43.Y-35.7
X43.57Y-44.43
X46.11Y-44.43
X48.65Y-44.43
X51.19Y-44.43
X51.2Y-26.45
X53.73Y-44.43
X53.74Y-26.45
X56.27Y-44.43
X56.28Y-26.45
X58.81Y-44.43
X58.82Y-26.45
X61.36Y-26.45
T0
M30
