G04 #@! TF.FileFunction,Legend,Bot*
%FSLAX46Y46*%
G04 Gerber Fmt 4.6, Leading zero omitted, Abs format (unit mm)*
G04 Created by KiCad (PCBNEW 4.0.6) date Tue May 26 19:12:12 2020*
%MOMM*%
%LPD*%
G01*
G04 APERTURE LIST*
%ADD10C,0.100000*%
%ADD11C,0.300000*%
%ADD12C,0.150000*%
%ADD13C,0.120000*%
G04 APERTURE END LIST*
D10*
D11*
X41878571Y-25714286D02*
X40378571Y-25714286D01*
X41450000Y-26214286D01*
X40378571Y-26714286D01*
X41878571Y-26714286D01*
X41807143Y-27357143D02*
X41878571Y-27571429D01*
X41878571Y-27928572D01*
X41807143Y-28071429D01*
X41735714Y-28142858D01*
X41592857Y-28214286D01*
X41450000Y-28214286D01*
X41307143Y-28142858D01*
X41235714Y-28071429D01*
X41164286Y-27928572D01*
X41092857Y-27642858D01*
X41021429Y-27500000D01*
X40950000Y-27428572D01*
X40807143Y-27357143D01*
X40664286Y-27357143D01*
X40521429Y-27428572D01*
X40450000Y-27500000D01*
X40378571Y-27642858D01*
X40378571Y-28000000D01*
X40450000Y-28214286D01*
X40378571Y-28714286D02*
X41878571Y-29714286D01*
X40378571Y-29714286D02*
X41878571Y-28714286D01*
X41878571Y-30285714D02*
X40878571Y-30285714D01*
X41021429Y-30285714D02*
X40950000Y-30357142D01*
X40878571Y-30500000D01*
X40878571Y-30714285D01*
X40950000Y-30857142D01*
X41092857Y-30928571D01*
X41878571Y-30928571D01*
X41092857Y-30928571D02*
X40950000Y-31000000D01*
X40878571Y-31142857D01*
X40878571Y-31357142D01*
X40950000Y-31500000D01*
X41092857Y-31571428D01*
X41878571Y-31571428D01*
X41878571Y-32928571D02*
X41092857Y-32928571D01*
X40950000Y-32857142D01*
X40878571Y-32714285D01*
X40878571Y-32428571D01*
X40950000Y-32285714D01*
X41807143Y-32928571D02*
X41878571Y-32785714D01*
X41878571Y-32428571D01*
X41807143Y-32285714D01*
X41664286Y-32214285D01*
X41521429Y-32214285D01*
X41378571Y-32285714D01*
X41307143Y-32428571D01*
X41307143Y-32785714D01*
X41235714Y-32928571D01*
X41878571Y-33642857D02*
X40378571Y-33642857D01*
X41307143Y-33785714D02*
X41878571Y-34214285D01*
X40878571Y-34214285D02*
X41450000Y-33642857D01*
X41807143Y-35428571D02*
X41878571Y-35285714D01*
X41878571Y-35000000D01*
X41807143Y-34857143D01*
X41664286Y-34785714D01*
X41092857Y-34785714D01*
X40950000Y-34857143D01*
X40878571Y-35000000D01*
X40878571Y-35285714D01*
X40950000Y-35428571D01*
X41092857Y-35500000D01*
X41235714Y-35500000D01*
X41378571Y-34785714D01*
X41878571Y-36142857D02*
X40878571Y-36142857D01*
X41164286Y-36142857D02*
X41021429Y-36214285D01*
X40950000Y-36285714D01*
X40878571Y-36428571D01*
X40878571Y-36571428D01*
X41807143Y-36999999D02*
X41878571Y-37142856D01*
X41878571Y-37428571D01*
X41807143Y-37571428D01*
X41664286Y-37642856D01*
X41592857Y-37642856D01*
X41450000Y-37571428D01*
X41378571Y-37428571D01*
X41378571Y-37214285D01*
X41307143Y-37071428D01*
X41164286Y-36999999D01*
X41092857Y-36999999D01*
X40950000Y-37071428D01*
X40878571Y-37214285D01*
X40878571Y-37428571D01*
X40950000Y-37571428D01*
X41735714Y-38285714D02*
X41807143Y-38357142D01*
X41878571Y-38285714D01*
X41807143Y-38214285D01*
X41735714Y-38285714D01*
X41878571Y-38285714D01*
X41307143Y-38285714D02*
X40450000Y-38214285D01*
X40378571Y-38285714D01*
X40450000Y-38357142D01*
X41307143Y-38285714D01*
X40378571Y-38285714D01*
D12*
X39430000Y-46430000D02*
X39440000Y-46430000D01*
X39430000Y-24470000D02*
X39430000Y-46430000D01*
X63210000Y-24470000D02*
X39430000Y-24470000D01*
X63210000Y-46430000D02*
X63210000Y-24470000D01*
X39440000Y-46430000D02*
X63210000Y-46430000D01*
D13*
X42300000Y-43040000D02*
X60200000Y-43040000D01*
X60200000Y-43040000D02*
X60200000Y-45820000D01*
X60200000Y-45820000D02*
X42300000Y-45820000D01*
X42300000Y-45820000D02*
X42300000Y-43040000D01*
X41030000Y-43040000D02*
X39640000Y-43040000D01*
X39640000Y-43040000D02*
X39640000Y-44430000D01*
X44280000Y-37090000D02*
X44280000Y-34430000D01*
X44280000Y-34430000D02*
X47020000Y-34430000D01*
X47020000Y-34430000D02*
X47020000Y-37090000D01*
X47020000Y-37090000D02*
X44280000Y-37090000D01*
X47020000Y-36140000D02*
X47020000Y-35260000D01*
X47020000Y-35260000D02*
X53020000Y-35260000D01*
X53020000Y-35260000D02*
X53020000Y-36140000D01*
X53020000Y-36140000D02*
X47020000Y-36140000D01*
X43970000Y-36140000D02*
X44280000Y-36140000D01*
X43970000Y-35260000D02*
X44280000Y-35260000D01*
X47020000Y-36020000D02*
X53020000Y-36020000D01*
X47020000Y-35900000D02*
X53020000Y-35900000D01*
X47020000Y-35780000D02*
X53020000Y-35780000D01*
X47020000Y-35660000D02*
X53020000Y-35660000D01*
X47020000Y-35540000D02*
X53020000Y-35540000D01*
X47020000Y-35420000D02*
X53020000Y-35420000D01*
X47020000Y-35300000D02*
X53020000Y-35300000D01*
X44280000Y-34430000D02*
X44280000Y-31890000D01*
X44280000Y-31890000D02*
X47020000Y-31890000D01*
X47020000Y-31890000D02*
X47020000Y-34430000D01*
X47020000Y-34430000D02*
X44280000Y-34430000D01*
X47020000Y-33600000D02*
X47020000Y-32720000D01*
X47020000Y-32720000D02*
X53020000Y-32720000D01*
X53020000Y-32720000D02*
X53020000Y-33600000D01*
X53020000Y-33600000D02*
X47020000Y-33600000D01*
X43970000Y-33600000D02*
X44280000Y-33600000D01*
X43970000Y-32720000D02*
X44280000Y-32720000D01*
X44280000Y-31890000D02*
X44280000Y-29230000D01*
X44280000Y-29230000D02*
X47020000Y-29230000D01*
X47020000Y-29230000D02*
X47020000Y-31890000D01*
X47020000Y-31890000D02*
X44280000Y-31890000D01*
X47020000Y-31060000D02*
X47020000Y-30180000D01*
X47020000Y-30180000D02*
X53020000Y-30180000D01*
X53020000Y-30180000D02*
X53020000Y-31060000D01*
X53020000Y-31060000D02*
X47020000Y-31060000D01*
X43970000Y-31060000D02*
X44280000Y-31060000D01*
X43970000Y-30180000D02*
X44280000Y-30180000D01*
X41730000Y-35700000D02*
X41730000Y-36970000D01*
X41730000Y-36970000D02*
X43000000Y-36970000D01*
D12*
X61583333Y-43822381D02*
X61583333Y-44536667D01*
X61630953Y-44679524D01*
X61726191Y-44774762D01*
X61869048Y-44822381D01*
X61964286Y-44822381D01*
X60583333Y-44822381D02*
X61154762Y-44822381D01*
X60869048Y-44822381D02*
X60869048Y-43822381D01*
X60964286Y-43965238D01*
X61059524Y-44060476D01*
X61154762Y-44108095D01*
X47648333Y-37422381D02*
X47648333Y-38136667D01*
X47695953Y-38279524D01*
X47791191Y-38374762D01*
X47934048Y-38422381D01*
X48029286Y-38422381D01*
X47267381Y-37422381D02*
X46648333Y-37422381D01*
X46981667Y-37803333D01*
X46838809Y-37803333D01*
X46743571Y-37850952D01*
X46695952Y-37898571D01*
X46648333Y-37993810D01*
X46648333Y-38231905D01*
X46695952Y-38327143D01*
X46743571Y-38374762D01*
X46838809Y-38422381D01*
X47124524Y-38422381D01*
X47219762Y-38374762D01*
X47267381Y-38327143D01*
M02*
