%FSLAX45Y45*%
G04 Gerber Fmt 4.5, Leading zero omitted, Abs format (unit mm)*
G04 Created by KiCad (PCBNEW 4.0.6) date Tue May 26 18:59:04 2020*
%MOMM*%
%LPD*%
G01*
G04 APERTURE LIST*
%ADD10C,0.127000*%
%ADD11C,0.150000*%
%ADD12C,0.200000*%
%ADD13C,0.300000*%
G04 APERTURE END LIST*
D10*
D11*
X3943000Y-4643000D02*
X3944000Y-4643000D01*
X3943000Y-2447000D02*
X3943000Y-4643000D01*
X6321000Y-2447000D02*
X3943000Y-2447000D01*
X6321000Y-4643000D02*
X6321000Y-2447000D01*
X3944000Y-4643000D02*
X6321000Y-4643000D01*
D12*
X4320000Y-4050000D02*
X4400000Y-4130000D01*
X4400000Y-4050000D02*
X4320000Y-4130000D01*
X4510000Y-2650000D02*
X4590000Y-2730000D01*
X4590000Y-2650000D02*
X4510000Y-2730000D01*
X4570000Y-3820000D02*
X4650000Y-3900000D01*
X4650000Y-3820000D02*
X4570000Y-3900000D01*
X5080000Y-4110000D02*
X5160000Y-4190000D01*
X5160000Y-4110000D02*
X5080000Y-4190000D01*
X5334000Y-3199000D02*
X5414000Y-3279000D01*
X5414000Y-3199000D02*
X5334000Y-3279000D01*
X5580000Y-3820000D02*
X5660000Y-3900000D01*
X5660000Y-3820000D02*
X5580000Y-3900000D01*
X5584000Y-3000000D02*
X5664000Y-3080000D01*
X5664000Y-3000000D02*
X5584000Y-3080000D01*
X5788000Y-3541000D02*
X5868000Y-3621000D01*
X5868000Y-3541000D02*
X5788000Y-3621000D01*
X4153000Y-4443000D02*
G75*
G03X4153000Y-4443000I-50000J0D01*
G01*
X4350000Y-3062000D02*
G75*
G03X4350000Y-3062000I-50000J0D01*
G01*
X4350000Y-3316000D02*
G75*
G03X4350000Y-3316000I-50000J0D01*
G01*
X4350000Y-3570000D02*
G75*
G03X4350000Y-3570000I-50000J0D01*
G01*
X4407000Y-4443000D02*
G75*
G03X4407000Y-4443000I-50000J0D01*
G01*
X4661000Y-4443000D02*
G75*
G03X4661000Y-4443000I-50000J0D01*
G01*
X4915000Y-4443000D02*
G75*
G03X4915000Y-4443000I-50000J0D01*
G01*
X5169000Y-4443000D02*
G75*
G03X5169000Y-4443000I-50000J0D01*
G01*
X5170000Y-2645000D02*
G75*
G03X5170000Y-2645000I-50000J0D01*
G01*
X5423000Y-4443000D02*
G75*
G03X5423000Y-4443000I-50000J0D01*
G01*
X5424000Y-2645000D02*
G75*
G03X5424000Y-2645000I-50000J0D01*
G01*
X5677000Y-4443000D02*
G75*
G03X5677000Y-4443000I-50000J0D01*
G01*
X5678000Y-2645000D02*
G75*
G03X5678000Y-2645000I-50000J0D01*
G01*
X5931000Y-4443000D02*
G75*
G03X5931000Y-4443000I-50000J0D01*
G01*
X5932000Y-2645000D02*
G75*
G03X5932000Y-2645000I-50000J0D01*
G01*
X6186000Y-2645000D02*
G75*
G03X6186000Y-2645000I-50000J0D01*
G01*
D13*
X4206929Y-5116214D02*
X4206929Y-4816214D01*
X4278357Y-4816214D01*
X4321214Y-4830500D01*
X4349786Y-4859072D01*
X4364071Y-4887643D01*
X4378357Y-4944786D01*
X4378357Y-4987643D01*
X4364071Y-5044786D01*
X4349786Y-5073357D01*
X4321214Y-5101929D01*
X4278357Y-5116214D01*
X4206929Y-5116214D01*
X4506929Y-5116214D02*
X4506929Y-4916214D01*
X4506929Y-4973357D02*
X4521214Y-4944786D01*
X4535500Y-4930500D01*
X4564071Y-4916214D01*
X4592643Y-4916214D01*
X4692643Y-5116214D02*
X4692643Y-4916214D01*
X4692643Y-4816214D02*
X4678357Y-4830500D01*
X4692643Y-4844786D01*
X4706929Y-4830500D01*
X4692643Y-4816214D01*
X4692643Y-4844786D01*
X4878357Y-5116214D02*
X4849786Y-5101929D01*
X4835500Y-5073357D01*
X4835500Y-4816214D01*
X5035500Y-5116214D02*
X5006929Y-5101929D01*
X4992643Y-5073357D01*
X4992643Y-4816214D01*
X5378357Y-5116214D02*
X5378357Y-4816214D01*
X5478357Y-5030500D01*
X5578357Y-4816214D01*
X5578357Y-5116214D01*
X5849786Y-5116214D02*
X5849786Y-4959072D01*
X5835500Y-4930500D01*
X5806928Y-4916214D01*
X5749786Y-4916214D01*
X5721214Y-4930500D01*
X5849786Y-5101929D02*
X5821214Y-5116214D01*
X5749786Y-5116214D01*
X5721214Y-5101929D01*
X5706928Y-5073357D01*
X5706928Y-5044786D01*
X5721214Y-5016214D01*
X5749786Y-5001929D01*
X5821214Y-5001929D01*
X5849786Y-4987643D01*
X5992643Y-4916214D02*
X5992643Y-5216214D01*
X5992643Y-4930500D02*
X6021214Y-4916214D01*
X6078357Y-4916214D01*
X6106928Y-4930500D01*
X6121214Y-4944786D01*
X6135500Y-4973357D01*
X6135500Y-5059072D01*
X6121214Y-5087643D01*
X6106928Y-5101929D01*
X6078357Y-5116214D01*
X6021214Y-5116214D01*
X5992643Y-5101929D01*
X6264071Y-5087643D02*
X6278357Y-5101929D01*
X6264071Y-5116214D01*
X6249786Y-5101929D01*
X6264071Y-5087643D01*
X6264071Y-5116214D01*
X6264071Y-4930500D02*
X6278357Y-4944786D01*
X6264071Y-4959072D01*
X6249786Y-4944786D01*
X6264071Y-4930500D01*
X6264071Y-4959072D01*
X3855500Y-5570500D02*
X3935500Y-5650500D01*
X3935500Y-5570500D02*
X3855500Y-5650500D01*
X4264071Y-5446214D02*
X4292643Y-5446214D01*
X4321214Y-5460500D01*
X4335500Y-5474786D01*
X4349786Y-5503357D01*
X4364071Y-5560500D01*
X4364071Y-5631929D01*
X4349786Y-5689071D01*
X4335500Y-5717643D01*
X4321214Y-5731929D01*
X4292643Y-5746214D01*
X4264071Y-5746214D01*
X4235500Y-5731929D01*
X4221214Y-5717643D01*
X4206929Y-5689071D01*
X4192643Y-5631929D01*
X4192643Y-5560500D01*
X4206929Y-5503357D01*
X4221214Y-5474786D01*
X4235500Y-5460500D01*
X4264071Y-5446214D01*
X4492643Y-5717643D02*
X4506929Y-5731929D01*
X4492643Y-5746214D01*
X4478357Y-5731929D01*
X4492643Y-5717643D01*
X4492643Y-5746214D01*
X4678357Y-5574786D02*
X4649786Y-5560500D01*
X4635500Y-5546214D01*
X4621214Y-5517643D01*
X4621214Y-5503357D01*
X4635500Y-5474786D01*
X4649786Y-5460500D01*
X4678357Y-5446214D01*
X4735500Y-5446214D01*
X4764071Y-5460500D01*
X4778357Y-5474786D01*
X4792643Y-5503357D01*
X4792643Y-5517643D01*
X4778357Y-5546214D01*
X4764071Y-5560500D01*
X4735500Y-5574786D01*
X4678357Y-5574786D01*
X4649786Y-5589072D01*
X4635500Y-5603357D01*
X4621214Y-5631929D01*
X4621214Y-5689071D01*
X4635500Y-5717643D01*
X4649786Y-5731929D01*
X4678357Y-5746214D01*
X4735500Y-5746214D01*
X4764071Y-5731929D01*
X4778357Y-5717643D01*
X4792643Y-5689071D01*
X4792643Y-5631929D01*
X4778357Y-5603357D01*
X4764071Y-5589072D01*
X4735500Y-5574786D01*
X4978357Y-5446214D02*
X5006929Y-5446214D01*
X5035500Y-5460500D01*
X5049786Y-5474786D01*
X5064071Y-5503357D01*
X5078357Y-5560500D01*
X5078357Y-5631929D01*
X5064071Y-5689071D01*
X5049786Y-5717643D01*
X5035500Y-5731929D01*
X5006929Y-5746214D01*
X4978357Y-5746214D01*
X4949786Y-5731929D01*
X4935500Y-5717643D01*
X4921214Y-5689071D01*
X4906929Y-5631929D01*
X4906929Y-5560500D01*
X4921214Y-5503357D01*
X4935500Y-5474786D01*
X4949786Y-5460500D01*
X4978357Y-5446214D01*
X5206929Y-5746214D02*
X5206929Y-5546214D01*
X5206929Y-5574786D02*
X5221214Y-5560500D01*
X5249786Y-5546214D01*
X5292643Y-5546214D01*
X5321214Y-5560500D01*
X5335500Y-5589072D01*
X5335500Y-5746214D01*
X5335500Y-5589072D02*
X5349786Y-5560500D01*
X5378357Y-5546214D01*
X5421214Y-5546214D01*
X5449786Y-5560500D01*
X5464071Y-5589072D01*
X5464071Y-5746214D01*
X5606928Y-5746214D02*
X5606928Y-5546214D01*
X5606928Y-5574786D02*
X5621214Y-5560500D01*
X5649786Y-5546214D01*
X5692643Y-5546214D01*
X5721214Y-5560500D01*
X5735500Y-5589072D01*
X5735500Y-5746214D01*
X5735500Y-5589072D02*
X5749786Y-5560500D01*
X5778357Y-5546214D01*
X5821214Y-5546214D01*
X5849786Y-5560500D01*
X5864071Y-5589072D01*
X5864071Y-5746214D01*
X6449786Y-5431929D02*
X6192643Y-5817643D01*
X6835500Y-5446214D02*
X6864071Y-5446214D01*
X6892643Y-5460500D01*
X6906928Y-5474786D01*
X6921214Y-5503357D01*
X6935500Y-5560500D01*
X6935500Y-5631929D01*
X6921214Y-5689071D01*
X6906928Y-5717643D01*
X6892643Y-5731929D01*
X6864071Y-5746214D01*
X6835500Y-5746214D01*
X6806928Y-5731929D01*
X6792643Y-5717643D01*
X6778357Y-5689071D01*
X6764071Y-5631929D01*
X6764071Y-5560500D01*
X6778357Y-5503357D01*
X6792643Y-5474786D01*
X6806928Y-5460500D01*
X6835500Y-5446214D01*
X7064071Y-5717643D02*
X7078357Y-5731929D01*
X7064071Y-5746214D01*
X7049786Y-5731929D01*
X7064071Y-5717643D01*
X7064071Y-5746214D01*
X7264071Y-5446214D02*
X7292643Y-5446214D01*
X7321214Y-5460500D01*
X7335500Y-5474786D01*
X7349785Y-5503357D01*
X7364071Y-5560500D01*
X7364071Y-5631929D01*
X7349785Y-5689071D01*
X7335500Y-5717643D01*
X7321214Y-5731929D01*
X7292643Y-5746214D01*
X7264071Y-5746214D01*
X7235500Y-5731929D01*
X7221214Y-5717643D01*
X7206928Y-5689071D01*
X7192643Y-5631929D01*
X7192643Y-5560500D01*
X7206928Y-5503357D01*
X7221214Y-5474786D01*
X7235500Y-5460500D01*
X7264071Y-5446214D01*
X7464071Y-5446214D02*
X7649785Y-5446214D01*
X7549785Y-5560500D01*
X7592643Y-5560500D01*
X7621214Y-5574786D01*
X7635500Y-5589072D01*
X7649785Y-5617643D01*
X7649785Y-5689071D01*
X7635500Y-5717643D01*
X7621214Y-5731929D01*
X7592643Y-5746214D01*
X7506928Y-5746214D01*
X7478357Y-5731929D01*
X7464071Y-5717643D01*
X7935500Y-5746214D02*
X7764071Y-5746214D01*
X7849785Y-5746214D02*
X7849785Y-5446214D01*
X7821214Y-5489072D01*
X7792643Y-5517643D01*
X7764071Y-5531929D01*
X8049786Y-5446214D02*
X8049786Y-5503357D01*
X8164071Y-5446214D02*
X8164071Y-5503357D01*
X8606928Y-5860500D02*
X8592643Y-5846214D01*
X8564071Y-5803357D01*
X8549786Y-5774786D01*
X8535500Y-5731929D01*
X8521214Y-5660500D01*
X8521214Y-5603357D01*
X8535500Y-5531929D01*
X8549786Y-5489072D01*
X8564071Y-5460500D01*
X8592643Y-5417643D01*
X8606928Y-5403357D01*
X8764071Y-5574786D02*
X8735500Y-5560500D01*
X8721214Y-5546214D01*
X8706928Y-5517643D01*
X8706928Y-5503357D01*
X8721214Y-5474786D01*
X8735500Y-5460500D01*
X8764071Y-5446214D01*
X8821214Y-5446214D01*
X8849786Y-5460500D01*
X8864071Y-5474786D01*
X8878357Y-5503357D01*
X8878357Y-5517643D01*
X8864071Y-5546214D01*
X8849786Y-5560500D01*
X8821214Y-5574786D01*
X8764071Y-5574786D01*
X8735500Y-5589072D01*
X8721214Y-5603357D01*
X8706928Y-5631929D01*
X8706928Y-5689071D01*
X8721214Y-5717643D01*
X8735500Y-5731929D01*
X8764071Y-5746214D01*
X8821214Y-5746214D01*
X8849786Y-5731929D01*
X8864071Y-5717643D01*
X8878357Y-5689071D01*
X8878357Y-5631929D01*
X8864071Y-5603357D01*
X8849786Y-5589072D01*
X8821214Y-5574786D01*
X9235500Y-5746214D02*
X9235500Y-5446214D01*
X9364071Y-5746214D02*
X9364071Y-5589072D01*
X9349786Y-5560500D01*
X9321214Y-5546214D01*
X9278357Y-5546214D01*
X9249786Y-5560500D01*
X9235500Y-5574786D01*
X9549786Y-5746214D02*
X9521214Y-5731929D01*
X9506928Y-5717643D01*
X9492643Y-5689071D01*
X9492643Y-5603357D01*
X9506928Y-5574786D01*
X9521214Y-5560500D01*
X9549786Y-5546214D01*
X9592643Y-5546214D01*
X9621214Y-5560500D01*
X9635500Y-5574786D01*
X9649786Y-5603357D01*
X9649786Y-5689071D01*
X9635500Y-5717643D01*
X9621214Y-5731929D01*
X9592643Y-5746214D01*
X9549786Y-5746214D01*
X9821214Y-5746214D02*
X9792643Y-5731929D01*
X9778357Y-5703357D01*
X9778357Y-5446214D01*
X10049786Y-5731929D02*
X10021214Y-5746214D01*
X9964071Y-5746214D01*
X9935500Y-5731929D01*
X9921214Y-5703357D01*
X9921214Y-5589072D01*
X9935500Y-5560500D01*
X9964071Y-5546214D01*
X10021214Y-5546214D01*
X10049786Y-5560500D01*
X10064071Y-5589072D01*
X10064071Y-5617643D01*
X9921214Y-5646214D01*
X10178357Y-5731929D02*
X10206929Y-5746214D01*
X10264071Y-5746214D01*
X10292643Y-5731929D01*
X10306929Y-5703357D01*
X10306929Y-5689071D01*
X10292643Y-5660500D01*
X10264071Y-5646214D01*
X10221214Y-5646214D01*
X10192643Y-5631929D01*
X10178357Y-5603357D01*
X10178357Y-5589072D01*
X10192643Y-5560500D01*
X10221214Y-5546214D01*
X10264071Y-5546214D01*
X10292643Y-5560500D01*
X10406928Y-5860500D02*
X10421214Y-5846214D01*
X10449786Y-5803357D01*
X10464071Y-5774786D01*
X10478357Y-5731929D01*
X10492643Y-5660500D01*
X10492643Y-5603357D01*
X10478357Y-5531929D01*
X10464071Y-5489072D01*
X10449786Y-5460500D01*
X10421214Y-5417643D01*
X10406928Y-5403357D01*
X3935500Y-6006500D02*
G75*
G03X3935500Y-6006500I-50000J0D01*
G01*
X4364071Y-6142214D02*
X4192643Y-6142214D01*
X4278357Y-6142214D02*
X4278357Y-5842214D01*
X4249786Y-5885071D01*
X4221214Y-5913643D01*
X4192643Y-5927929D01*
X4492643Y-6113643D02*
X4506929Y-6127929D01*
X4492643Y-6142214D01*
X4478357Y-6127929D01*
X4492643Y-6113643D01*
X4492643Y-6142214D01*
X4692643Y-5842214D02*
X4721214Y-5842214D01*
X4749786Y-5856500D01*
X4764071Y-5870786D01*
X4778357Y-5899357D01*
X4792643Y-5956500D01*
X4792643Y-6027929D01*
X4778357Y-6085071D01*
X4764071Y-6113643D01*
X4749786Y-6127929D01*
X4721214Y-6142214D01*
X4692643Y-6142214D01*
X4664071Y-6127929D01*
X4649786Y-6113643D01*
X4635500Y-6085071D01*
X4621214Y-6027929D01*
X4621214Y-5956500D01*
X4635500Y-5899357D01*
X4649786Y-5870786D01*
X4664071Y-5856500D01*
X4692643Y-5842214D01*
X4978357Y-5842214D02*
X5006929Y-5842214D01*
X5035500Y-5856500D01*
X5049786Y-5870786D01*
X5064071Y-5899357D01*
X5078357Y-5956500D01*
X5078357Y-6027929D01*
X5064071Y-6085071D01*
X5049786Y-6113643D01*
X5035500Y-6127929D01*
X5006929Y-6142214D01*
X4978357Y-6142214D01*
X4949786Y-6127929D01*
X4935500Y-6113643D01*
X4921214Y-6085071D01*
X4906929Y-6027929D01*
X4906929Y-5956500D01*
X4921214Y-5899357D01*
X4935500Y-5870786D01*
X4949786Y-5856500D01*
X4978357Y-5842214D01*
X5206929Y-6142214D02*
X5206929Y-5942214D01*
X5206929Y-5970786D02*
X5221214Y-5956500D01*
X5249786Y-5942214D01*
X5292643Y-5942214D01*
X5321214Y-5956500D01*
X5335500Y-5985071D01*
X5335500Y-6142214D01*
X5335500Y-5985071D02*
X5349786Y-5956500D01*
X5378357Y-5942214D01*
X5421214Y-5942214D01*
X5449786Y-5956500D01*
X5464071Y-5985071D01*
X5464071Y-6142214D01*
X5606928Y-6142214D02*
X5606928Y-5942214D01*
X5606928Y-5970786D02*
X5621214Y-5956500D01*
X5649786Y-5942214D01*
X5692643Y-5942214D01*
X5721214Y-5956500D01*
X5735500Y-5985071D01*
X5735500Y-6142214D01*
X5735500Y-5985071D02*
X5749786Y-5956500D01*
X5778357Y-5942214D01*
X5821214Y-5942214D01*
X5849786Y-5956500D01*
X5864071Y-5985071D01*
X5864071Y-6142214D01*
X6449786Y-5827929D02*
X6192643Y-6213643D01*
X6835500Y-5842214D02*
X6864071Y-5842214D01*
X6892643Y-5856500D01*
X6906928Y-5870786D01*
X6921214Y-5899357D01*
X6935500Y-5956500D01*
X6935500Y-6027929D01*
X6921214Y-6085071D01*
X6906928Y-6113643D01*
X6892643Y-6127929D01*
X6864071Y-6142214D01*
X6835500Y-6142214D01*
X6806928Y-6127929D01*
X6792643Y-6113643D01*
X6778357Y-6085071D01*
X6764071Y-6027929D01*
X6764071Y-5956500D01*
X6778357Y-5899357D01*
X6792643Y-5870786D01*
X6806928Y-5856500D01*
X6835500Y-5842214D01*
X7064071Y-6113643D02*
X7078357Y-6127929D01*
X7064071Y-6142214D01*
X7049786Y-6127929D01*
X7064071Y-6113643D01*
X7064071Y-6142214D01*
X7264071Y-5842214D02*
X7292643Y-5842214D01*
X7321214Y-5856500D01*
X7335500Y-5870786D01*
X7349785Y-5899357D01*
X7364071Y-5956500D01*
X7364071Y-6027929D01*
X7349785Y-6085071D01*
X7335500Y-6113643D01*
X7321214Y-6127929D01*
X7292643Y-6142214D01*
X7264071Y-6142214D01*
X7235500Y-6127929D01*
X7221214Y-6113643D01*
X7206928Y-6085071D01*
X7192643Y-6027929D01*
X7192643Y-5956500D01*
X7206928Y-5899357D01*
X7221214Y-5870786D01*
X7235500Y-5856500D01*
X7264071Y-5842214D01*
X7464071Y-5842214D02*
X7649785Y-5842214D01*
X7549785Y-5956500D01*
X7592643Y-5956500D01*
X7621214Y-5970786D01*
X7635500Y-5985071D01*
X7649785Y-6013643D01*
X7649785Y-6085071D01*
X7635500Y-6113643D01*
X7621214Y-6127929D01*
X7592643Y-6142214D01*
X7506928Y-6142214D01*
X7478357Y-6127929D01*
X7464071Y-6113643D01*
X7792643Y-6142214D02*
X7849785Y-6142214D01*
X7878357Y-6127929D01*
X7892643Y-6113643D01*
X7921214Y-6070786D01*
X7935500Y-6013643D01*
X7935500Y-5899357D01*
X7921214Y-5870786D01*
X7906928Y-5856500D01*
X7878357Y-5842214D01*
X7821214Y-5842214D01*
X7792643Y-5856500D01*
X7778357Y-5870786D01*
X7764071Y-5899357D01*
X7764071Y-5970786D01*
X7778357Y-5999357D01*
X7792643Y-6013643D01*
X7821214Y-6027929D01*
X7878357Y-6027929D01*
X7906928Y-6013643D01*
X7921214Y-5999357D01*
X7935500Y-5970786D01*
X8049786Y-5842214D02*
X8049786Y-5899357D01*
X8164071Y-5842214D02*
X8164071Y-5899357D01*
X8606928Y-6256500D02*
X8592643Y-6242214D01*
X8564071Y-6199357D01*
X8549786Y-6170786D01*
X8535500Y-6127929D01*
X8521214Y-6056500D01*
X8521214Y-5999357D01*
X8535500Y-5927929D01*
X8549786Y-5885071D01*
X8564071Y-5856500D01*
X8592643Y-5813643D01*
X8606928Y-5799357D01*
X8878357Y-6142214D02*
X8706928Y-6142214D01*
X8792643Y-6142214D02*
X8792643Y-5842214D01*
X8764071Y-5885071D01*
X8735500Y-5913643D01*
X8706928Y-5927929D01*
X9135500Y-5842214D02*
X9078357Y-5842214D01*
X9049786Y-5856500D01*
X9035500Y-5870786D01*
X9006928Y-5913643D01*
X8992643Y-5970786D01*
X8992643Y-6085071D01*
X9006928Y-6113643D01*
X9021214Y-6127929D01*
X9049786Y-6142214D01*
X9106928Y-6142214D01*
X9135500Y-6127929D01*
X9149786Y-6113643D01*
X9164071Y-6085071D01*
X9164071Y-6013643D01*
X9149786Y-5985071D01*
X9135500Y-5970786D01*
X9106928Y-5956500D01*
X9049786Y-5956500D01*
X9021214Y-5970786D01*
X9006928Y-5985071D01*
X8992643Y-6013643D01*
X9521214Y-6142214D02*
X9521214Y-5842214D01*
X9649786Y-6142214D02*
X9649786Y-5985071D01*
X9635500Y-5956500D01*
X9606928Y-5942214D01*
X9564071Y-5942214D01*
X9535500Y-5956500D01*
X9521214Y-5970786D01*
X9835500Y-6142214D02*
X9806928Y-6127929D01*
X9792643Y-6113643D01*
X9778357Y-6085071D01*
X9778357Y-5999357D01*
X9792643Y-5970786D01*
X9806928Y-5956500D01*
X9835500Y-5942214D01*
X9878357Y-5942214D01*
X9906928Y-5956500D01*
X9921214Y-5970786D01*
X9935500Y-5999357D01*
X9935500Y-6085071D01*
X9921214Y-6113643D01*
X9906928Y-6127929D01*
X9878357Y-6142214D01*
X9835500Y-6142214D01*
X10106928Y-6142214D02*
X10078357Y-6127929D01*
X10064071Y-6099357D01*
X10064071Y-5842214D01*
X10335500Y-6127929D02*
X10306929Y-6142214D01*
X10249786Y-6142214D01*
X10221214Y-6127929D01*
X10206929Y-6099357D01*
X10206929Y-5985071D01*
X10221214Y-5956500D01*
X10249786Y-5942214D01*
X10306929Y-5942214D01*
X10335500Y-5956500D01*
X10349786Y-5985071D01*
X10349786Y-6013643D01*
X10206929Y-6042214D01*
X10464071Y-6127929D02*
X10492643Y-6142214D01*
X10549786Y-6142214D01*
X10578357Y-6127929D01*
X10592643Y-6099357D01*
X10592643Y-6085071D01*
X10578357Y-6056500D01*
X10549786Y-6042214D01*
X10506929Y-6042214D01*
X10478357Y-6027929D01*
X10464071Y-5999357D01*
X10464071Y-5985071D01*
X10478357Y-5956500D01*
X10506929Y-5942214D01*
X10549786Y-5942214D01*
X10578357Y-5956500D01*
X10692643Y-6256500D02*
X10706929Y-6242214D01*
X10735500Y-6199357D01*
X10749786Y-6170786D01*
X10764071Y-6127929D01*
X10778357Y-6056500D01*
X10778357Y-5999357D01*
X10764071Y-5927929D01*
X10749786Y-5885071D01*
X10735500Y-5856500D01*
X10706929Y-5813643D01*
X10692643Y-5799357D01*
M02*
